<svg width="256" height="256" viewBox="0 0 256 256" fill="none" xmlns="http://www.w3.org/2000/svg">
<path d="M162.719 145.315C163.924 145.315 165.013 146.037 165.482 147.148L175.167 170.073C176.2 172.518 179.665 172.516 180.696 170.07L190.348 147.151C190.816 146.038 191.906 145.315 193.113 145.315H204.62C206.822 145.315 208.274 147.608 207.331 149.599L192.656 180.598C191.714 182.588 193.165 184.881 195.368 184.881H200.075C201.731 184.881 203.075 186.224 203.075 187.881V191.733C203.075 193.39 201.731 194.733 200.075 194.733H189.451C187.81 194.733 186.479 196.063 186.479 197.704C186.479 199.345 187.81 200.676 189.451 200.676H200.075C201.731 200.676 203.075 202.019 203.075 203.676V207.527C203.075 209.184 201.731 210.527 200.075 210.527H189.479C187.822 210.527 186.479 211.871 186.479 213.527V224C186.479 225.657 185.136 227 183.479 227H171.898C170.241 227 168.898 225.657 168.898 224V213.527C168.898 211.871 167.555 210.527 165.898 210.527H153.988C152.331 210.527 150.988 209.184 150.988 207.527V203.676C150.988 202.019 152.331 200.676 153.988 200.676H165.927C167.568 200.676 168.898 199.345 168.898 197.704C168.898 196.063 167.568 194.733 165.927 194.733H153.988C152.331 194.733 150.988 193.39 150.988 191.733V187.881C150.988 186.224 152.331 184.881 153.988 184.881H160.388C162.588 184.881 164.04 182.592 163.102 180.602L148.487 149.594C147.549 147.604 149 145.315 151.2 145.315H162.719Z" fill="#54D599"/>
<path d="M50.7433 135.303C51.7542 132.397 55.5624 131.714 57.5763 134.077L72.5548 151.655C74.557 154.005 73.2828 157.609 70.2579 158.151L63.9249 159.287C65.8736 166.991 69.3814 175.282 75.0684 182.578C84.6954 194.928 100.898 204.889 127.798 203.938C130.557 203.84 132.874 205.997 132.972 208.757C133.069 211.516 130.911 213.833 128.151 213.931C98.202 214.99 78.8736 203.725 67.1817 188.726C60.3715 179.989 56.2709 170.145 54.0597 161.058L47.7608 162.189C44.7361 162.731 42.22 159.808 43.2247 156.919L50.7433 135.303Z" fill="#54D599"/>
<path d="M206.236 127.697C205.225 130.603 201.418 131.286 199.404 128.923L184.426 111.345C182.424 108.995 183.697 105.391 186.722 104.848L193.056 103.713C191.107 96.0084 187.599 87.7174 181.912 80.4217C172.285 68.0718 156.083 58.1109 129.183 59.0623C126.423 59.1599 124.107 57.0025 124.009 54.243C123.911 51.4833 126.069 49.1668 128.829 49.0692C158.779 48.0099 178.107 59.2753 189.799 74.2742C196.609 83.0108 200.71 92.8552 202.921 101.942L209.22 100.811C212.244 100.269 214.76 103.192 213.755 106.081L206.236 127.697Z" fill="#0D8AFF"/>
<path d="M81.6295 29C83.9045 29 85.7484 30.8442 85.7486 33.1191V40.3066C98.7055 41.1693 108.14 47.1025 111.915 56.0156C113.85 60.5853 109.658 64.8076 104.696 64.8076C100.142 64.8076 96.6115 60.7816 93.1266 57.8506C91.2958 56.3108 88.8079 55.2921 85.7486 54.8652V74.749L89.6549 75.6562C104.278 78.8471 114.835 86.0662 114.877 99.667C114.838 113.746 104.135 123.017 85.7486 124.058V130.881C85.7484 133.156 83.9045 135 81.6295 135C79.3544 135 77.5096 133.156 77.5094 130.881V123.983C63.3461 122.919 53.4243 116.918 49.818 106.217C48.2396 101.533 52.4057 97.3537 57.3482 97.3535C61.9636 97.3535 65.4596 101.38 68.5416 104.815C70.6489 107.164 73.7485 108.666 77.5094 109.312V88.167L73.4703 87.1826C59.2575 83.8721 50.5083 76.9721 50.5494 64.9268C50.4749 51.4426 61.6299 42.0434 77.5094 40.4414V33.1191C77.5096 30.8442 79.3544 29 81.6295 29ZM85.7486 109.424C92.6265 108.451 96.8903 104.739 96.9254 99.627C96.8891 94.783 92.9396 92.2249 85.7486 90.2129V109.424ZM77.5094 55.0928C71.8482 56.2597 68.7877 59.5694 68.7877 63.7705C68.6915 68.3472 72.3997 70.9552 77.5094 72.6572V55.0928Z" fill="#0D8AFF"/>
</svg>
