<svg width="256" height="256" viewBox="0 0 256 256" fill="none" xmlns="http://www.w3.org/2000/svg">
<rect x="167.739" y="116.664" width="40.2614" height="60.2591" rx="12" fill="#0A6ECC"/>
<ellipse cx="85.7059" cy="233.725" rx="16.6078" ry="18.2753" fill="#333333"/>
<ellipse cx="165.222" cy="233.725" rx="16.6078" ry="18.2753" fill="#333333"/>
<rect x="91.2418" y="20.8421" width="11.0719" height="50.3806" fill="#F7F7F7"/>
<rect x="150.627" y="20.8421" width="11.0719" height="50.3806" fill="#F7F7F7"/>
<rect x="54" y="62.332" width="141.922" height="168.923" rx="20" fill="#0D8AFF"/>
<path d="M88.7254 31.9254C87.9103 27.548 87.7408 18.423 89.9042 14.4029C94.1318 6.54718 104.19 8.11619 112.072 8.14845L129.666 8.16634C136.824 8.16927 144.056 7.98229 151.209 8.28189C162.325 8.74747 164.625 17.5488 163.953 26.7319C163.776 29.1376 164.559 33.0585 161.448 33.7652C160.21 33.482 152.523 33.7752 151.037 34.0032C144.848 32.2918 152.01 25.2222 143.032 25.0835C132.259 24.8562 121.262 25.0492 110.52 25.0794C100 25.109 108.146 32.1916 101.867 33.7494C100.312 33.5822 92.0944 33.5367 90.9141 34.0372C90.1287 33.9898 89.2287 33.4072 88.7254 31.9254Z" fill="#0D8AFF"/>
<rect x="167.739" y="91.9676" width="108.664" height="14.0915" rx="7.04575" transform="rotate(90 167.739 91.9676)" fill="#0A6ECC"/>
<rect x="131.503" y="91.9676" width="108.664" height="12.0784" rx="6.03921" transform="rotate(90 131.503 91.9676)" fill="#0A6ECC"/>
<rect x="97.281" y="91.9676" width="108.664" height="14.0915" rx="7.04575" transform="rotate(90 97.281 91.9676)" fill="#0A6ECC"/>
</svg>
