<svg width="256" height="256" viewBox="0 0 256 256" fill="none" xmlns="http://www.w3.org/2000/svg">
<path d="M28.0487 57.1715C41.6968 56.8107 56.33 57.1314 70.0395 57.1314L148.752 57.1174L201.03 57.1232C210.277 57.1223 219.542 57.0423 228.785 57.2616C230.752 57.3083 232.05 57.8372 233.666 59.1141C236.326 61.2166 236.898 64.0346 236.953 67.3976C237.023 71.591 237.046 75.752 237.037 79.9384L236.992 109.731L237.015 165.24C236.994 172.277 237.054 179.32 237.042 186.351C237.035 189.729 236.929 192.979 234.728 195.606C233.006 197.662 231.037 198.413 228.644 198.83C215.402 199.19 200.649 198.865 187.291 198.876L103.099 198.897L53.1521 198.873L37.0951 198.864C32.196 198.857 25.655 199.727 21.7705 196.113C19.9492 194.418 19.1495 191.79 19.1058 189.229C18.9779 181.735 19.0755 174.224 19.0732 166.725L19.0503 121.495L19.0545 85.5747C19.0403 78.982 18.8912 72.2802 19.1567 65.6987C19.3923 59.8583 23.0983 57.4052 28.0487 57.1715Z" fill="#54D599"/>
<path d="M52.1627 68.8795C59.3632 69.5381 71.3896 69.2079 78.8483 69.2088L129.814 69.1344L179.522 69.1788L194.705 69.1899C197.282 69.1935 201.185 69.3105 203.642 69.0436C203.708 69.9043 203.77 71.1359 203.994 71.9437C207.287 83.8438 215.459 93.0977 226.814 94.9923L226.798 134.258C226.798 142.709 226.611 152.152 226.894 160.535C214.243 163.18 205.933 172.993 203.558 186.83C202.277 187.197 194.911 186.943 193.059 186.94L162.707 186.886L84.2675 186.891C73.8618 186.881 62.6081 187.174 52.3073 186.943C50.4497 173.668 40.8729 163.757 29.2276 160.802C29.1043 138.802 29.125 116.801 29.2899 94.8021C34.5096 94.0336 39.3894 91.5248 43.2711 87.614C47.6042 83.3318 51.8462 75.3393 52.1627 68.8795Z" fill="#54D599"/>
<path d="M52.1627 68.8795C59.3632 69.5381 71.3896 69.2079 78.8483 69.2088L129.814 69.1344L179.522 69.1788L194.705 69.1899C197.282 69.1935 201.185 69.3105 203.642 69.0436C203.708 69.9043 203.77 71.1359 203.994 71.9437C207.287 83.8438 215.459 93.0977 226.814 94.9923L226.798 134.258C226.798 142.709 226.611 152.152 226.894 160.535C214.243 163.18 205.933 172.993 203.558 186.83C202.277 187.197 194.911 186.943 193.059 186.94L162.707 186.886L84.2675 186.891C73.8618 186.881 62.6081 187.174 52.3073 186.943C50.4497 173.668 40.8729 163.757 29.2276 160.802C29.1043 138.802 29.125 116.801 29.2899 94.8021C34.5096 94.0336 39.3894 91.5248 43.2711 87.614C47.6042 83.3318 51.8462 75.3393 52.1627 68.8795Z" fill="black" fill-opacity="0.2"/>
<path d="M129.699 130.809C133.397 131.554 135.617 132.993 137.823 136.205C138.021 137.844 138.002 138.637 137.956 140.295C137.203 141.485 136.694 142.262 135.828 143.36C133.247 145.296 132.736 145.384 129.657 145.667C129.75 140.795 129.633 135.74 129.699 130.809Z" fill="#54D599"/>
<path d="M129.699 130.809C133.397 131.554 135.617 132.993 137.823 136.205C138.021 137.844 138.002 138.637 137.956 140.295C137.203 141.485 136.694 142.262 135.828 143.36C133.247 145.296 132.736 145.384 129.657 145.667C129.75 140.795 129.633 135.74 129.699 130.809Z" fill="black" fill-opacity="0.2"/>
<path d="M125.39 106.216L125.577 106.399C125.691 107.454 125.621 110.124 125.618 111.284C125.59 114.422 125.606 117.562 125.664 120.7C123.609 119.953 122.823 119.585 121.002 118.337C119.129 117.271 117.721 114.062 118.353 111.829C119.41 108.098 122.902 107.771 125.238 106.313L125.39 106.216Z" fill="#54D599"/>
<path d="M125.39 106.216L125.577 106.399C125.691 107.454 125.621 110.124 125.618 111.284C125.59 114.422 125.606 117.562 125.664 120.7C123.609 119.953 122.823 119.585 121.002 118.337C119.129 117.271 117.721 114.062 118.353 111.829C119.41 108.098 122.902 107.771 125.238 106.313L125.39 106.216Z" fill="black" fill-opacity="0.2"/>
<circle cx="72" cy="128" r="8" fill="#54D599"/>
<circle cx="183" cy="128" r="8" fill="#54D599"/>
<path d="M127.417 90C129.001 90.0001 130.286 91.2843 130.286 92.8682V98.1094C139.387 98.7337 145.992 103.057 148.572 109.544C149.846 112.749 146.935 115.673 143.486 115.673C140.312 115.673 137.874 112.879 135.509 110.763C134.227 109.615 132.464 108.858 130.286 108.545V122.801L133.004 123.451C143.185 125.739 150.534 130.915 150.563 140.667C150.536 150.761 143.085 157.408 130.286 158.154V163.132C130.286 164.716 129.001 166 127.417 166C125.833 166 124.549 164.716 124.549 163.132V158.102C114.612 157.333 107.674 152.969 105.213 145.184C104.177 141.906 107.068 139.009 110.505 139.009C113.721 139.009 116.146 141.796 118.218 144.256C119.686 145.999 121.878 147.11 124.549 147.582V132.422L121.737 131.716C111.842 129.342 105.751 124.395 105.78 115.759C105.728 106.091 113.494 99.3517 124.549 98.2031V92.8682C124.549 91.2843 125.833 90 127.417 90ZM130.286 147.661C135.073 146.963 138.041 144.303 138.066 140.639C138.041 137.166 135.291 135.332 130.286 133.89V147.661ZM124.549 108.708C120.608 109.545 118.477 111.918 118.477 114.93C118.41 118.211 120.992 120.08 124.549 121.301V108.708Z" fill="#54D599"/>
</svg>
