<svg width="200" height="200" viewBox="0 0 200 200" fill="none" xmlns="http://www.w3.org/2000/svg">
<rect width="200" height="200" fill="white"/>
<rect width="200" height="200" fill="#FF3355"/>
<rect width="200" height="200" fill="#F7F8FA" fill-opacity="0.5"/>
<g clip-path="url(#clip0_365_3450)">
<path d="M100 44.4443C105.494 44.4443 110.864 46.0735 115.433 49.1257C120.001 52.178 123.561 56.5163 125.663 61.592C127.766 66.6677 128.316 72.2529 127.244 77.6413C126.172 83.0296 123.527 87.9792 119.642 91.864C115.757 95.7488 110.808 98.3943 105.419 99.4661C100.031 100.538 94.4456 99.9879 89.3699 97.8854C84.2942 95.783 79.9559 92.2226 76.9036 87.6546C73.8514 83.0866 72.2222 77.716 72.2222 72.2221L72.25 71.0166C72.5607 63.8652 75.62 57.1098 80.7901 52.1591C85.9602 47.2085 92.8419 44.4447 100 44.4443Z" fill="white" fill-opacity="0.8"/>
<path d="M111.111 111.111C118.478 111.111 125.544 114.038 130.753 119.247C135.962 124.456 138.889 131.522 138.889 138.889V144.444C138.889 147.391 137.718 150.217 135.635 152.301C133.551 154.385 130.725 155.556 127.778 155.556H72.2222C69.2754 155.556 66.4492 154.385 64.3655 152.301C62.2817 150.217 61.1111 147.391 61.1111 144.444V138.889C61.1111 131.522 64.0377 124.456 69.247 119.247C74.4564 114.038 81.5218 111.111 88.8889 111.111H111.111Z" fill="white" fill-opacity="0.8"/>
</g>
<defs>
<clipPath id="clip0_365_3450">
<rect width="133.333" height="133.333" fill="white" transform="translate(33.3333 33.3333)"/>
</clipPath>
</defs>
</svg>
